<svg xmlns="http://www.w3.org/2000/svg" xmlns:xlink="http://www.w3.org/1999/xlink" viewBox="0 0 120 120" shape-rendering="geometricPrecision" text-rendering="geometricPrecision"><g><path d="M86.3,82.7c6.2,6.2,6.2,16.4,0,22.6-3.1,3.1-7.2,4.7-11.3,4.7s-8.2-1.6-11.3-4.7l-21-21l3.5-3.5L60,94.6L75.6,79L42.7,46.2l3.5-3.5L60,56.5L75.6,40.9L52.9,18.2c-4.3-4.3-11.3-4.3-15.6,0-2.1,2.1-3.2,4.8-3.2,7.8c0,2.9,1.1,5.7,3.2,7.8c0,0,0,0,0,0l3.6,3.6L54.7,23.6l3.5,3.5L25.4,60L41,75.6L54.8,61.8l3.5,3.5L37.4,86.2c-4.3,4.3-4.3,11.3,0,15.6s11.3,4.3,15.6,0l1.9-1.9l3.5,3.5-1.9,1.9-.1.1c0,0,0,0,0,0-3.1,3.1-7.2,4.6-11.2,4.6-4.1,0-8.2-1.6-11.3-4.7-4-4-5.4-9.6-4.3-14.8-1.2.3-2.4.4-3.6.4-4.1,0-8.2-1.6-11.3-4.7-6.2-6.2-6.2-16.4,0-22.6l1.9-1.9l3.5,3.5-1.9,1.9c-4.3,4.3-4.3,11.3,0,15.6s11.3,4.3,15.6,0l.1-.1L37.5,79L14.8,56.4c0,0,0,0,0,0s0,0,0,0c-6.2-6.2-6.2-16.4,0-22.6c2.6-2.6,6-4.2,9.7-4.6c1.4-.1,2.6.9,2.7,2.2.1,1.4-.9,2.6-2.2,2.7-2.5.3-4.9,1.4-6.7,3.2-4.3,4.3-4.3,11.3,0,15.6c0,0,0,0,0,0s0,0,0,0l3.6,3.6L37.5,40.9l-3.6-3.6c0,0,0,0,0,0-6.2-6.2-6.2-16.4,0-22.6c3-3,7-4.7,11.3-4.7s8.3,1.7,11.3,4.7l3.6,3.6l3.6-3.6c0,0,0,0,0,0c6.2-6.2,16.4-6.2,22.6,0c2.6,2.6,4.2,6,4.6,9.7.1,1.4-.9,2.6-2.2,2.7-.1,0-.2,0-.3,0-1.3,0-2.3-1-2.5-2.2-.3-2.5-1.4-4.9-3.2-6.7-4.3-4.3-11.3-4.3-15.6,0c0,0,0,0,0,0l-3.6,3.6L79.1,37.4l6.2-6.2c1-1,2.5-1,3.5,0s1,2.5,0,3.5L63.6,60L79.2,75.6L93,61.7l3.5,3.5-32.9,33l3.6,3.6c2.1,2.1,4.8,3.2,7.8,3.2s5.7-1.1,7.8-3.2c4.3-4.3,4.3-11.3,0-15.6c0,0,0,0,0,0l-1.9-1.9l3.5-3.5l1.9,1.9c0,0,0,0,0,0Zm19.1-19.1c0,0,0,0,0,0v0c0,0-.1,0,0,0-.1,0-.1,0,0,0L101.8,60l3.5-3.5c0,0,0,0,0,0s0,0,0,0v0c0,0,0,0,0,0c6.2-6.2,6.1-16.3-.1-22.5-2.6-2.6-6-4.2-9.7-4.6-1.4-.1-2.6.9-2.7,2.2-.1,1.4.9,2.6,2.2,2.7c2.5.3,4.9,1.4,6.7,3.2c4.3,4.3,4.3,11.3,0,15.6l-3.6,3.6-13.7-14-3.5,3.5l20.9,20.9c4.3,4.3,4.3,11.3,0,15.6-1.8,1.8-4.1,2.9-6.7,3.2-1.4.1-2.4,1.4-2.2,2.7.1,1.3,1.2,2.2,2.5,2.2.1,0,.2,0,.3,0c3.6-.4,7.1-2,9.7-4.6c6.2-6.2,6.2-16.3,0-22.6Z" fill="#00A062"/></g></svg>
